<svg xmlns="http://www.w3.org/2000/svg" width="23.04" height="26.895" viewBox="0 0 23.04 26.895">
  <path id="Path_34" data-name="Path 34" d="M4992.642-593.5s.471-2.258-.041-2.659a6.832,6.832,0,0,1-2.337-2.994,45.268,45.268,0,0,0-3.139-6.426c-.638-.977-1.009-1.366-.948-1.847a1.606,1.606,0,0,1,.349-1.016,1.921,1.921,0,0,1,.417-.423,1.937,1.937,0,0,1,1.869-.08,10.488,10.488,0,0,1,2.685,2.362c.695.986.91,2.208.813,1.406s-.69-7.605-.876-9.779a4.824,4.824,0,0,1,.4-2.242,1.971,1.971,0,0,1,1.527-1.079c.067-.023,1.359-.143,2.125,2.644a14.3,14.3,0,0,1,.452,3.48c.1,2.193.331,4.062.279,4.3a22.64,22.64,0,0,0,.645-2.3c.246-1.082,2.646-1.5,3.275.089a4.286,4.286,0,0,1,.213,1.554,10.321,10.321,0,0,1,0,1.226c-.017.144-.058-3.036,2.244-3.2s1.942,3.707,1.9,3.912.359-2.288,2.1-2.25,1.613,2.442,1.6,2.518-.475,5.011-1.062,6.443-2.338,2.122-2.99,4.078-.78,3.221-.883,3.362a11.712,11.712,0,0,1-2.416-.089c-.661-.042.052-1.483-1.074-2.672-.486-.192-.794.283-1.086,1.01a3.735,3.735,0,0,1-.715,1.381,13.192,13.192,0,0,1-3.239-.2c-1.246-.2-2.219-.593-2.085-.718" transform="translate(-4985.675 618.799)" fill="#fff" stroke="#000" stroke-width="1"/>
  <path id="Path_35" data-name="Path 35" d="M5157.69-374.8l-.424,5.375" transform="translate(-5146.617 389.767)" fill="#fff" stroke="#000" stroke-linecap="round" stroke-width="1"/>
  <path id="Path_36" data-name="Path 36" d="M5157.69-374.8l-.424,5.375" transform="translate(-5143.531 390.182)" fill="#fff" stroke="#000" stroke-linecap="round" stroke-width="1"/>
  <path id="Path_37" data-name="Path 37" d="M.425,0,0,5.375" transform="matrix(0.999, 0.052, -0.052, 0.999, 16.962, 15.787)" fill="#fff" stroke="#000" stroke-linecap="round" stroke-width="1"/>
</svg>
